<svg version="1.1" xmlns="http://www.w3.org/2000/svg" xmlns:xlink="http://www.w3.org/1999/xlink" width="342.14731" height="342.89283" viewBox="0,0,342.14731,342.89283"><defs><linearGradient x1="62.62558" y1="-43.42646" x2="440.03225" y2="424.22768" gradientUnits="userSpaceOnUse" id="color-1"><stop offset="0.15" stop-color="#75c7f9"/><stop offset="0.22" stop-color="#6dbef5"/><stop offset="0.34" stop-color="#57a5ea"/><stop offset="0.37" stop-color="#519fe7"/><stop offset="0.71" stop-color="#1451cd"/><stop offset="0.75" stop-color="#124fcc"/><stop offset="1" stop-color="#0a44c8"/></linearGradient></defs><g transform="translate(-68.92635,-8.55359)"><g data-paper-data="{&quot;isPaintingLayer&quot;:true}" fill-rule="nonzero" stroke="none" stroke-linecap="butt" stroke-linejoin="miter" stroke-dasharray="" stroke-dashoffset="0" style="mix-blend-mode: normal"><path d="M411.07365,180c0.00754,61.2494 -32.59723,117.84941 -85.53072,148.47626c-52.93349,30.62687 -118.15236,30.62687 -171.08588,0c-52.93349,-30.62687 -85.53824,-87.22688 -85.5307,-148.47626c-0.00754,-61.2494 32.59723,-117.84938 85.5307,-148.47626c52.93349,-30.62687 118.15236,-30.62687 171.08588,0c52.93347,30.62687 85.53826,87.22691 85.53072,148.47628z" fill="url(#color-1)" stroke-width="10" stroke-miterlimit="4"/><path d="M180.72973,145.45585v20.92212h-16.45091v30.29257c-0.00004,4.14672 0.78329,6.61068 2.35013,7.39137c1.5667,0.781 3.18748,1.17144 4.86233,1.17144c2.59318,0 5.67268,-0.45787 9.23845,-1.37328v22.94158c-6.37513,1.23857 -12.64213,1.85787 -18.80101,1.85787c-9.94081,0 -17.24781,-2.12708 -21.92105,-6.38162c-4.67328,-4.25436 -7.00991,-11.03997 -7.00989,-20.35664l0.08103,-9.61276v-25.93049h-12.31795v-20.92212h12.31795l0.48623,-26.73837l30.71375,-0.48461v27.223zM270.21353,145.45585l-30.22752,82.15359h-24.14961l-30.79484,-82.15359h33.22601l11.75068,34.89711c0.97243,2.85422 1.83684,5.68157 2.59325,8.48188c0.27007,-0.96934 0.67527,-2.20791 1.21558,-3.71588c0.10802,-0.21535 0.45919,-1.23859 1.05352,-3.06971l12.15586,-36.59342zM354.77863,227.6094h-32.33454v-51.69943c-0.00004,-4.25436 -0.66189,-6.97387 -1.98546,-8.15871c-1.32369,-1.18481 -2.98502,-1.77721 -4.98394,-1.77721c-5.88888,0 -8.83323,4.09292 -8.83321,12.27852v49.35682h-32.33457v-82.15357h29.98444v11.63241c4.43007,-8.88585 12.3449,-13.3287 23.74444,-13.32883c5.99681,0.00016 11.06177,1.1444 15.19484,3.43313c4.13291,2.289 7.0908,5.25083 8.87377,8.88596c1.78278,3.63511 2.67421,9.94943 2.67428,18.94293z" fill="#ffffff" stroke-width="1" stroke-miterlimit="10"/></g></g></svg>